<?xml version="1.0" encoding="utf-8"?>
<!-- Generator: Adobe Illustrator 24.0.1, SVG Export Plug-In . SVG Version: 6.00 Build 0)  -->
<svg version="1.1"
	 id="svg2" xmlns:cc="http://creativecommons.org/ns#" xmlns:dc="http://purl.org/dc/elements/1.1/" xmlns:rdf="http://www.w3.org/1999/02/22-rdf-syntax-ns#" xmlns:svg="http://www.w3.org/2000/svg"
	 xmlns="http://www.w3.org/2000/svg" xmlns:xlink="http://www.w3.org/1999/xlink" x="0px" y="0px" viewBox="0 0 882.8 546.9"
	 style="enable-background:new 0 0 882.8 546.9;" xml:space="preserve">
<style type="text/css">
	.st0{fill:none;stroke:#7F7F7F;}
</style>
<path id="path1873" class="st0" d="M882,1.3c0,300.3-243.5,543.8-543.9,543.8"/>
<path id="path1875" class="st0" d="M1.8,209c0,185.6,150.5,336.1,336.2,336.1"/>
<path id="path2762" class="st0" d="M209.6,1.3C94.8,1.3,1.8,94.3,1.8,209"/>
<path id="path2764" class="st0" d="M338,129.7C338,58.8,280.5,1.3,209.6,1.3"/>
<path id="path2766" class="st0" d="M338,129.7c0,43.8-35.5,79.3-79.3,79.3"/>
<path id="path2768" class="st0" d="M209.6,159.9c0,27.1,22,49.1,49.1,49.1l0,0"/>
<path id="path2770" class="st0" d="M209.6,159.9c0-16.7,13.5-30.2,30.2-30.2l0,0"/>
<path id="path2772" class="st0" d="M258.7,148.6c0-10.4-8.5-18.9-18.9-18.9l0,0"/>
<path id="path2774" class="st0" d="M258.7,148.6c0,6.3-5.1,11.3-11.3,11.3l0,0"/>
<path id="rect2784" class="st0" d="M247.4,148.6v11.3"/>
<path id="rect2786" class="st0" d="M239.8,148.6h18.9"/>
<path id="rect2788" class="st0" d="M247.4,152.4h-7.6"/>
<path id="rect2790" class="st0" d="M243.6,152.4v-3.8"/>
<path id="rect2794" class="st0" d="M239.8,159.9v-30.2"/>
<path id="rect2796" class="st0" d="M258.7,159.9h-49.1"/>
<path id="rect2798" class="st0" d="M258.7,129.7V209"/>
<path id="rect2800" class="st0" d="M209.6,129.7H338"/>
<path id="rect2802" class="st0" d="M209.6,209V1.3"/>
<path id="rect2804" class="st0" d="M338,209.2H1.6"/>
<path id="rect2806" class="st0" d="M338,1.3v543.8"/>
<path id="path922" class="st0" d="M882,1.3v544.3"/>
<path id="path924" class="st0" d="M1.8,1.8v543.8"/>
<path id="path926" class="st0" d="M882,545.6H1.3"/>
<path id="path928" class="st0" d="M882,1.3H1.3"/>
<path id="path1028" class="st0" d="M239.8,152.4c0,4.2,3.4,7.6,7.6,7.6"/>
<path id="path1030" class="st0" d="M239.8,152.4c0-2.1,1.7-3.8,3.8-3.8"/>
<path id="path1034" class="st0" d="M247.4,152.4c0-2.1-1.7-3.8-3.8-3.8h0"/>
</svg>
